<?xml version="1.0" encoding="UTF-8"?>
<svg id="_レイヤー_1" data-name="レイヤー_1" xmlns="http://www.w3.org/2000/svg" version="1.1" viewBox="0 0 36.7 42.4">
  <!-- Generator: Adobe Illustrator 29.0.1, SVG Export Plug-In . SVG Version: 2.1.0 Build 192)  -->
  <defs>
    <style>
      .st0 {
        fill: #97a3ae;
      }

      .st1 {
        fill: #c9b78d;
        fill-rule: evenodd;
      }

      .st2 {
        fill: #292a47;
      }
    </style>
  </defs>
  <path class="st2" d="M0,10.6v21.2l18.4,10.6,18.4-10.6V10.6L18.4,0,0,10.6Z"/>
  <path class="st2" d="M1.8,11.6v19.1l16.5,9.5,16.5-9.5V11.6L18.3,2.1,1.8,11.6Z"/>
  <path class="st1" d="M3,30l15.3,8.8,15.3-8.8V12.3L18.3,3.5,3,12.3v17.7ZM18.3,2.1l16.5,9.5v19.1l-16.5,9.5L1.8,30.7V11.6L18.3,2.1Z"/>
  <path class="st0" d="M30.5,24.2l-1.5-.8v-4.2l1-1.2v-3.6l-4.7-2.7v9.6l-1.5-.9v-10.2l-4.7-2.7v20.1l4.5-4.4-2.4,5.2,6.3-1.3-9.1,5-9.1-5,6.3,1.3-2.4-5.2,4.5,4.4V7.5l-4.7,2.7v10.2l-1.5.9v-9.6l-4.7,2.7v3.6l1,1.2v4.2l-1.5.8v3.9l12.1,7,12.1-7v-3.9Z"/>
</svg>