<?xml version="1.0" encoding="UTF-8"?>
<svg id="_レイヤー_1" data-name="レイヤー_1" xmlns="http://www.w3.org/2000/svg" version="1.1" viewBox="0 0 36.7 42.4">
  <!-- Generator: Adobe Illustrator 29.0.1, SVG Export Plug-In . SVG Version: 2.1.0 Build 192)  -->
  <defs>
    <style>
      .st0 {
        fill: #c9b78d;
        fill-rule: evenodd;
      }

      .st1 {
        fill: #0093c9;
      }

      .st2 {
        fill: #292a47;
      }
    </style>
  </defs>
  <path class="st2" d="M0,10.6v21.2l18.4,10.6,18.4-10.6V10.6L18.4,0,0,10.6Z"/>
  <path class="st2" d="M1.8,11.6v19.1l16.5,9.5,16.5-9.5V11.6L18.3,2.1,1.8,11.6Z"/>
  <path class="st0" d="M3,30l15.3,8.8,15.3-8.8V12.3L18.3,3.5,3,12.3v17.7ZM18.3,2.1l16.5,9.5v19.1l-16.5,9.5L1.8,30.7V11.6L18.3,2.1Z"/>
  <path class="st1" d="M27.4,20.4c-2.5-2.8-5.5-4.5-6.8-5.2,5.1-1.9,6.8,0,6.8,0,1.2,1.1.4,2.7,0,3.5.6.6,1.1,1.1,1.4,1.6.6-.9,1.3-2.1,1.5-3.4.4-2.8-1.9-6.4-10.6-3.4-5.1,1.8-8.2,4.3-10,6.1-1.5-2.2-1.5-4,.3-4.9,1.1-.5,2.8-.4,4.4,0,.3-.2,1.2-.7,2.5-1.3-4-1.6-8.9-1.6-10.3.9-1.7,3,2.6,7.5,2.6,7.5,2.5,2.8,5.5,4.5,6.8,5.2-5.1,1.9-6.8,0-6.8,0-1.1-1.1-.4-2.7,0-3.5-.6-.6-1.1-1.1-1.4-1.6-.6.9-1.3,2.1-1.5,3.4-.4,2.8,1.9,6.4,10.6,3.4,5.1-1.8,8.2-4.3,10-6.1,1.5,2.2,1.6,4-.3,4.9-1.1.5-2.8.4-4.4,0-.3.2-1.2.7-2.5,1.3,4,1.6,8.9,1.6,10.3-.9,1.7-3-2.6-7.5-2.6-7.5ZM13.8,23.6c-1-.7-2-1.6-2.9-2.5,1-.9,2-1.8,2.9-2.5,1.3-.9,2.5-1.3,3.3-1.4,0,2.2-.9,3.4-2.2,3.9,1.3.5,2.1,1.7,2.2,3.9-.8-.1-2-.5-3.3-1.4ZM22.7,23.6c-1.3.9-2.5,1.3-3.3,1.4,0-2.2.9-3.4,2.2-3.9-1.3-.5-2.1-1.7-2.2-3.9.8.1,2,.5,3.3,1.4,1,.7,2,1.6,2.9,2.5-1,.9-2,1.8-2.9,2.5Z"/>
  <path class="st1" d="M18.3,29.3c-.7.3-1.3.5-1.9.7-.7.2-1.4.4-1.9.6l3.8,4.5,3.8-4.5c-1.1-.2-2.4-.6-3.8-1.3Z"/>
  <path class="st1" d="M18.2,13c.7-.3,1.3-.5,1.9-.7.7-.2,1.4-.4,1.9-.6l-3.8-4.5-3.8,4.5c1.1.2,2.4.6,3.8,1.3Z"/>
</svg>