<?xml version="1.0" encoding="UTF-8"?>
<svg id="_レイヤー_1" data-name="レイヤー_1" xmlns="http://www.w3.org/2000/svg" version="1.1" viewBox="0 0 36.7 42.4">
  <!-- Generator: Adobe Illustrator 29.0.1, SVG Export Plug-In . SVG Version: 2.1.0 Build 192)  -->
  <defs>
    <style>
      .st0 {
        fill: #c9b78d;
        fill-rule: evenodd;
      }

      .st1 {
        fill: #d50037;
      }

      .st2 {
        fill: #292a47;
      }
    </style>
  </defs>
  <path class="st2" d="M0,10.6v21.2l18.4,10.6,18.4-10.6V10.6L18.4,0,0,10.6Z"/>
  <path class="st2" d="M1.8,11.6v19.1l16.5,9.5,16.5-9.5V11.6L18.3,2.1,1.8,11.6Z"/>
  <path class="st0" d="M3,30l15.3,8.8,15.3-8.8V12.3L18.3,3.5,3,12.3v17.7ZM18.3,2.1l16.5,9.5v19.1l-16.5,9.5L1.8,30.7V11.6L18.3,2.1Z"/>
  <path class="st1" d="M21.6,11.8c-3.6,8.1-13.5,14.9-16.7,17,3.4-1.8,14.3-6.9,23.1-6-2.3,5.2-5.7,9-9.8,12.3l12.1-7v-14l-12.1-7-12.1,7c4.9-1.9,9.9-3,15.6-2.4Z"/>
  <path class="st1" d="M12.8,16.6c.6,1.1-2.8,5.4-7.5,8.4,2.4-1.2,6.1-3.8,8.9-6.2,2-1.6,3.2-3.3,4.4-5.2-4.4.1-8.3,1.5-11.6,3.1,3.2-1,5.4-.9,5.9-.2Z"/>
  <path class="st1" d="M19.4,28c-.6-1.1-6.1-.3-11,2.3,2.2-1.5,6.4-3.3,9.8-4.6,2.4-.9,4.4-1.1,6.7-1.2-2.3,3.7-5.5,6.4-8.5,8.5,2.5-2.3,3.5-4.2,3.1-5Z"/>
</svg>