<?xml version="1.0" encoding="UTF-8"?>
<svg id="_レイヤー_1" data-name="レイヤー_1" xmlns="http://www.w3.org/2000/svg" version="1.1" viewBox="0 0 36.7 42.4">
  <!-- Generator: Adobe Illustrator 29.0.1, SVG Export Plug-In . SVG Version: 2.1.0 Build 192)  -->
  <defs>
    <style>
      .st0 {
        fill: #f4b223;
      }

      .st1 {
        fill: #c9b78d;
        fill-rule: evenodd;
      }

      .st2 {
        fill: #292a47;
      }
    </style>
  </defs>
  <path class="st2" d="M0,10.6v21.2l18.4,10.6,18.4-10.6V10.6L18.4,0,0,10.6Z"/>
  <path class="st2" d="M1.8,11.6v19.1l16.5,9.5,16.5-9.5V11.6L18.3,2.1,1.8,11.6Z"/>
  <path class="st1" d="M3,30l15.3,8.8,15.3-8.8V12.3L18.3,3.5,3,12.3v17.7ZM18.3,2.1l16.5,9.5v19.1l-16.5,9.5L1.8,30.7V11.6L18.3,2.1Z"/>
  <path class="st0" d="M8.3,21.9c.1.3.2.6.3.8.7-.9,1.3-1.7,1.9-2.4-.6-1.8-1.1-3.4-1.4-4.8l1.1-.7c-.2-1-.4-1.9-.5-2.8-.7.4-2.8,1.6-3.6,2.1.4,2.5,1,5,2.1,7.7Z"/>
  <path class="st0" d="M9.8,27.3c.2-.3.4-.6.6-.9.6-.8,1.2-1.6,1.7-2.3.4-.5.8-1,1.1-1.4-.5-.8-.9-1.7-1.3-2.6-1.2,1.4-2.2,2.7-3.5,4.4-.8,1.1-1.5,2.1-2.3,3.2,1.9,1.7,4.1,3.1,6.5,3.8-1.1-1.3-2.1-2.7-3-4.3Z"/>
  <path class="st0" d="M20.3,15.6c-.8-.7-1.5-1.3-2-1.8-.7.6-2,1.7-2.8,2.5.3.9.7,1.8,1.1,2.6.6-.6,1.2-1.2,1.7-1.7.5.5,1.1,1,1.7,1.7.4-.9.8-1.8,1.1-2.6-.3-.3-.5-.5-.8-.8Z"/>
  <path class="st0" d="M26.1,20.3c.6.7,1.2,1.5,1.9,2.4,1.2-2.9,2-5.8,2.4-8.5-.8-.4-2.8-1.6-3.6-2.1-.1.9-.3,1.8-.5,2.8l1.1.7c-.3,1.4-.7,3-1.4,4.8Z"/>
  <path class="st0" d="M21.4,32.7c.3-.2.5-.5.7-.7,1.3-1.4,2.5-3,3.5-4.7-.6-.8-1.2-1.6-1.7-2.3-.5.9-1.1,1.9-1.7,2.7-.8-.6-1.5-1.3-2.2-2-.6-.6-1.2-1.3-1.8-2-1.5-2-2.8-4.3-3.6-6.6-.2-.6-.4-1.2-.6-1.8-.2-.8-.4-1.6-.6-2.4l4.7-2.7,4.7,2.7c-.2,1.2-.6,2.5-1,3.9,0,.1,0,.2-.1.3-.4,1.2-1,2.4-1.6,3.5-.4.8-.9,1.5-1.4,2.2.5.7,1.1,1.4,1.8,2.1,2.1-2.9,3.7-6.4,4.6-9.8.3-1.3.5-2.5.7-3.6-2.3-1.3-5.4-3.1-7.6-4.4-2.3,1.3-5.4,3.1-7.6,4.4.1,1.3.4,2.7.8,4.2,0,.3.2.6.3,1,1.4,4.5,3.9,8.6,7.3,11.8.5.4,1,.9,1.5,1.2-.7.8-1.5,1.5-2.3,2.2-.8-.7-1.6-1.4-2.3-2.2.5-.4,1.1-.9,1.6-1.3-.6-.6-1.2-1.3-1.8-2-.5.4-1,.9-1.5,1.3-.6-.8-1.2-1.7-1.7-2.7-.6.7-1.1,1.5-1.7,2.3.2.3.4.6.6.9.9,1.4,1.9,2.6,3,3.8,1.2,1.2,2.4,2.2,3.8,3.2,1.1-.8,2.1-1.5,3.1-2.4Z"/>
  <path class="st0" d="M26.9,27.3c-.2-.3-.4-.6-.6-.9-.6-.8-1.2-1.6-1.7-2.3-.4-.5-.8-1-1.1-1.4.5-.8.9-1.7,1.3-2.6,1.2,1.4,2.2,2.7,3.5,4.4.8,1.1,1.5,2.1,2.3,3.2-1.9,1.7-4.1,3.1-6.5,3.8,1.1-1.3,2.1-2.7,3-4.3Z"/>
</svg>