<?xml version="1.0" encoding="UTF-8"?>
<svg id="_レイヤー_1" data-name="レイヤー_1" xmlns="http://www.w3.org/2000/svg" version="1.1" viewBox="0 0 36.7 42.4">
  <!-- Generator: Adobe Illustrator 29.0.1, SVG Export Plug-In . SVG Version: 2.1.0 Build 192)  -->
  <defs>
    <style>
      .st0 {
        fill: #c9b78d;
        fill-rule: evenodd;
      }

      .st1 {
        fill: #7c4182;
      }

      .st2 {
        fill: #292a47;
      }
    </style>
  </defs>
  <path class="st2" d="M0,10.6v21.2l18.4,10.6,18.4-10.6V10.6L18.4,0,0,10.6Z"/>
  <path class="st2" d="M1.8,11.6v19.1l16.5,9.5,16.5-9.5V11.6L18.3,2.1,1.8,11.6Z"/>
  <path class="st0" d="M3,30l15.3,8.8,15.3-8.8V12.3L18.3,3.5,3,12.3v17.7ZM18.3,2.1l16.5,9.5v19.1l-16.5,9.5L1.8,30.7V11.6L18.3,2.1Z"/>
  <path class="st1" d="M27.9,29.7c1.7-1.9,2.5-4.3,2.5-6.6,0-3.3-1.2-5.8-1.5-6.5-.2-.7.3-1,.9-.4.2.2.4.4.5.6-.3-1-.8-2.2-2-3.1-2.8-2-6.1-1.9-6.5-1.9-.4,0-1-.2,0-.6.4-.1.8-.2,1.1-.1-1-.6-2.8-.9-4.9,0-2.3.9-3.3,2.9-3.6,3.5-.3.6-.3,1-.5.8-.3-.2-.2-.8-.2-.8,0,0,0-.3.3-.8-.5.4-1.5,1.6-1.5,3.4s1.9,3.8,1.9,3.8c0,0,.6-.2,1.5,0-1,.1-1.5.8-1.7,1.2-.3.5-1.8,1.2-3-.7-.7-1.1-.3-2.4,0-3.1-.3.1-.6.3-.9.7,0-.9.2-3.3,1.6-5.3,1.9-2.5,4.4-3.7,4.4-3.7,1.5-.9,3.3-1.2,4.5-1.3-2.5-.5-5,0-7,1.1-2.8,1.6-4.4,4-4.9,4.5-.5.6-1,.3-.8-.6,0-.3.2-.6.3-.8-.7.7-1.5,1.8-1.6,3.3-.4,3.5,1.4,6.3,1.6,6.6.2.3.3,1-.5.3-.3-.3-.5-.6-.7-.9,0,1.2.7,2.9,2.5,4.3,2,1.5,4.2,1.4,4.8,1.3.7,0,1-.2,1,0,0,.3-.6.6-.6.6,0,0-.3.2-.9.2.6.2,2.1.5,3.7-.4,2.1-1.2,2.4-3.5,2.4-3.5,0,0-.5-.4-.8-1.3.6.8,1.4.9,1.9.9.5,0,2,1,.8,2.9-.6,1.1-1.9,1.5-2.7,1.6.2.2.6.4,1,.5-.8.4-2.9,1.5-5.4,1.2-3.1-.4-5.4-2-5.4-2-1.5-.9-2.7-2.3-3.4-3.3.8,2.4,2.5,4.3,4.5,5.5,2.8,1.6,5.7,1.9,6.4,2,.7.1.7.7-.1,1-.3.1-.6.1-.8.1,1,.3,2.3.4,3.6-.2,3.2-1.4,4.8-4.3,4.9-4.7.2-.3.7-.7.5.3,0,.4-.3.8-.4,1.1,1-.6,2.2-2,2.5-4.3.3-2.5-.8-4.3-1.3-4.9-.4-.6-.7-.7-.4-.9.3-.2.8.2.8.2,0,0,.3.1.6.7-.1-.6-.6-2.1-2.2-3-2.1-1.2-4.3-.3-4.3-.3,0,0,0,.6-.7,1.3.4-.9,0-1.7-.2-2.1-.3-.5-.1-2.2,2.1-2.2,1.3,0,2.2.9,2.7,1.5,0-.3,0-.7-.1-1.1.8.4,2.8,1.8,3.8,4.1,1.2,2.9,1,5.7,1,5.7,0,1.7-.6,3.4-1.1,4.5Z"/>
</svg>