<?xml version="1.0" encoding="UTF-8"?>
<svg id="_レイヤー_1" data-name="レイヤー_1" xmlns="http://www.w3.org/2000/svg" version="1.1" viewBox="0 0 33 33">
  <!-- Generator: Adobe Illustrator 29.0.1, SVG Export Plug-In . SVG Version: 2.1.0 Build 192)  -->
  <defs>
    <style>
      .st0 {
        fill: none;
        stroke: #c9b78d;
      }

      .st1 {
        fill: #fff;
      }

      .st2 {
        fill: #292a47;
      }
    </style>
  </defs>
  <circle class="st2" cx="16.5" cy="16.5" r="16.5"/>
  <path class="st2" d="M8.3,8.3v14.7l8.3,3.3v-14.7l-8.3-3.3Z"/>
  <path class="st2" d="M25,8.3v14.7l-8.3,3.3v-14.7l8.3-3.3Z"/>
  <path class="st1" d="M17.2,21.7c1.3-2.2,3.9-4,7.1-5.1v-7.3l-7.1,2.8v9.6h0Z"/>
  <path class="st1" d="M16.2,21.7v-9.6l-7.1-2.8v7.3c3.3,1.1,5.8,2.9,7.1,5.1Z"/>
  <path class="st1" d="M16.2,25.1c0-3.1-2.9-5.9-7.1-7.4v4.8l7.1,2.8v-.3Z"/>
  <path class="st1" d="M17.2,25.1v.2l7.1-2.8v-4.8c-4.3,1.5-7.1,4.3-7.1,7.4"/>
  <circle class="st0" cx="16.5" cy="16.5" r="14.3"/>
</svg>