<?xml version="1.0" encoding="UTF-8"?>
<svg id="_レイヤー_1" data-name="レイヤー_1" xmlns="http://www.w3.org/2000/svg" version="1.1" xmlns:xlink="http://www.w3.org/1999/xlink" viewBox="0 0 33 33">
  <!-- Generator: Adobe Illustrator 29.0.1, SVG Export Plug-In . SVG Version: 2.1.0 Build 192)  -->
  <defs>
    <style>
      .st0 {
        fill: none;
        stroke: #c9b78d;
      }

      .st1 {
        fill: url(#_名称未設定グラデーション);
      }

      .st2 {
        fill: #292a47;
      }
    </style>
    <linearGradient id="_名称未設定グラデーション" data-name="名称未設定グラデーション" x1="14" y1="8.2" x2="22.6" y2="21.5" gradientTransform="translate(0 34) scale(1 -1)" gradientUnits="userSpaceOnUse">
      <stop offset="0" stop-color="#471b16"/>
      <stop offset=".3" stop-color="#8f3b27"/>
      <stop offset=".6" stop-color="#a35634"/>
      <stop offset=".7" stop-color="#c47e43"/>
      <stop offset=".8" stop-color="#c57f44"/>
      <stop offset=".9" stop-color="#c9864b"/>
      <stop offset=".9" stop-color="#d09257"/>
      <stop offset=".9" stop-color="#dba367"/>
      <stop offset=".9" stop-color="#e6b579"/>
      <stop offset="1" stop-color="#cc8e5a"/>
      <stop offset="1" stop-color="#bf7a4a"/>
    </linearGradient>
  </defs>
  <circle class="st2" cx="16.5" cy="16.5" r="16.5"/>
  <path class="st2" d="M16.3,5.9L5.6,23h10.8V5.9Z"/>
  <path class="st2" d="M16.3,5.9l10.8,17.1h-10.8V5.9Z"/>
  <path class="st1" d="M11.2,15.3c1.9,1.8,3.2,4.4,3.4,7.2h-7.9l4.5-7.2ZM11.8,14.4c2.2,2,3.7,4.9,3.9,8.1h1.4c.2-3.2,1.6-6,3.9-8.1l-4.6-7.3-4.6,7.3h0ZM18,22.5h7.9l-4.5-7.2c-1.9,1.8-3.2,4.4-3.4,7.2Z"/>
  <circle class="st0" cx="16.5" cy="16.5" r="14.3"/>
</svg>