<?xml version="1.0" encoding="UTF-8"?>
<svg id="_レイヤー_1" data-name="レイヤー_1" xmlns="http://www.w3.org/2000/svg" version="1.1" viewBox="0 0 33 33">
  <!-- Generator: Adobe Illustrator 29.0.1, SVG Export Plug-In . SVG Version: 2.1.0 Build 192)  -->
  <defs>
    <style>
      .st0 {
        fill: none;
        stroke: #c9b78d;
      }

      .st1 {
        fill: #9c9e9d;
      }

      .st2 {
        fill: #292a47;
      }
    </style>
  </defs>
  <circle class="st2" cx="16.5" cy="16.5" r="16.5"/>
  <path class="st2" d="M16.7,26.1c5.2,0,9.4-4.2,9.4-9.4s-4.2-9.4-9.4-9.4-9.4,4.2-9.4,9.4,4.2,9.4,9.4,9.4Z"/>
  <path class="st1" d="M9.4,17.5c1.2,1.8,3.1,2.6,4.7,3.2-1.8-2.3-2.1-5.3-.6-8,1.2-2.2,3-3.6,5.3-3.9.6,0,1.1,0,1.7,0-.4-.2-.8-.4-1.2-.5-3.9-1.2-8,.6-10,4.1-.9,1.7-.9,3.5.2,5.1Z"/>
  <path class="st1" d="M17.1,24.5c.2-.5,0-1.3-.7-1.8h0c-.3-.2-1.2-.6-2.1-.9-1.9-.6-4.2-1.5-5.7-3.7-.2-.3-.4-.7-.5-1,.1,3.6,2.5,7,6.1,8,.4.1.9.2,1.3.3.9,0,1.5-.4,1.6-.9h0Z"/>
  <path class="st1" d="M24.9,19.2c.9-2.9.2-5.8-1.4-7.9-1.1-1.2-2.8-1.7-4.6-1.5-1.9.3-3.6,1.5-4.6,3.4-1.6,3.1-.6,6.7,2.3,8.6,1.4.8,1.6,2.1,1.3,3.1,0,.2-.2.4-.3.6,3.3-.4,6.2-2.8,7.2-6.2Z"/>
  <circle class="st0" cx="16.5" cy="16.5" r="14.3"/>
</svg>